<svg width="10" height="18" viewBox="0 0 10 18" fill="none" xmlns="http://www.w3.org/2000/svg">
<path d="M10 1.13491C10 1.01216 9.95211 0.894447 9.86687 0.807653C9.78162 0.720859 9.66601 0.672099 9.54545 0.672099H7.27273C6.12829 0.614054 5.00782 1.01957 4.15611 1.80004C3.30441 2.58052 2.79071 3.6725 2.72727 4.8374V7.33658H0.454545C0.333993 7.33658 0.218377 7.38534 0.133133 7.47213C0.0478896 7.55892 0 7.67664 0 7.79939V10.206C0 10.3287 0.0478896 10.4465 0.133133 10.5333C0.218377 10.6201 0.333993 10.6688 0.454545 10.6688H2.72727V16.8705C2.72727 16.9932 2.77516 17.1109 2.86041 17.1977C2.94565 17.2845 3.06127 17.3333 3.18182 17.3333H5.90909C6.02964 17.3333 6.14526 17.2845 6.2305 17.1977C6.31575 17.1109 6.36364 16.9932 6.36364 16.8705V10.6688H8.74545C8.84654 10.6703 8.94522 10.6374 9.02589 10.5754C9.10657 10.5134 9.16464 10.4257 9.19091 10.3263L9.84546 7.91972C9.86354 7.85133 9.86597 7.77964 9.85256 7.71015C9.83915 7.64066 9.81026 7.57523 9.7681 7.5189C9.72595 7.46256 9.67166 7.41683 9.60942 7.38523C9.54718 7.35362 9.47864 7.33697 9.40909 7.33658H6.36364V4.8374C6.38625 4.60828 6.49192 4.39598 6.66002 4.24194C6.82812 4.0879 7.04658 4.00318 7.27273 4.00434H9.54545C9.66601 4.00434 9.78162 3.95558 9.86687 3.86878C9.95211 3.78199 10 3.66427 10 3.54153V1.13491Z" fill="white"/>
</svg>
