<svg width="10" height="18" viewBox="0 0 10 18" fill="none" xmlns="http://www.w3.org/2000/svg">
<path d="M7.27388 3.50434C6.92114 3.50289 6.58199 3.63526 6.32222 3.87331C6.06236 4.11144 5.90063 4.43795 5.86605 4.78829L5.86364 4.81278V4.8374V7.33658V7.83658H6.36364H9.34991L8.71559 10.1688H6.36364H5.86364V10.6688V16.8333H3.22727V10.6688V10.1688H2.72727H0.5V7.83658H2.72727H3.22727V7.33658V4.8514C3.28682 3.82057 3.74286 2.85692 4.49391 2.16868C5.24785 1.47779 6.23785 1.12025 7.2474 1.17146L7.26006 1.1721H7.27273H9.5M7.27388 3.50434C7.27435 3.50434 7.27481 3.50434 7.27528 3.50434L7.27273 4.00434V3.50434H7.27388ZM7.27388 3.50434H9.5M9.5 3.50434V3.54153C9.5 3.53454 9.50264 3.52607 9.51014 3.51843C9.51795 3.51049 9.53046 3.50434 9.54545 3.50434H9.5ZM9.5 3.50434V1.1721M9.5 1.1721H9.54545C9.53046 1.1721 9.51794 1.16595 9.51014 1.15801C9.50264 1.15037 9.5 1.14189 9.5 1.13491V1.1721ZM9.19091 10.3263L9.84546 7.91972M9.19091 10.3263L6.36364 7.33658H6.86364H9.40909M9.19091 10.3263C9.16464 10.4257 9.10657 10.5134 9.02589 10.5754L9.19091 10.3263ZM9.84546 7.91972C9.86354 7.85133 9.86597 7.77964 9.85256 7.71015C9.83915 7.64066 9.81026 7.57523 9.7681 7.5189C9.72595 7.46256 9.67166 7.41683 9.60942 7.38523C9.54718 7.35362 9.47864 7.33697 9.40909 7.33658M9.84546 7.91972L9.40909 7.80104V7.80432L9.84546 7.91972ZM9.40909 7.33658V7.7797V7.78754L9.40267 7.79234L9.40651 7.78947L9.40654 7.78474L9.40909 7.33658ZM9.39586 7.79744L9.39767 7.79793L9.39768 7.79793L9.39957 7.79845L9.40645 7.80032L9.36298 7.7885L9.39586 7.79744ZM9.39586 7.79744L9.40267 7.79236L9.39586 7.79744Z" stroke="url(#paint0_linear_1282_47)"/>
<defs>
<linearGradient id="paint0_linear_1282_47" x1="-0.199219" y1="6.6851" x2="8.94598" y2="6.68773" gradientUnits="userSpaceOnUse">
<stop stop-color="#00C5EB"/>
<stop offset="1" stop-color="#B544FE"/>
</linearGradient>
</defs>
</svg>
