<svg width="20" height="20" viewBox="0 0 20 20" fill="none" xmlns="http://www.w3.org/2000/svg">
<g clip-path="url(#clip0_1282_54)">
<path d="M18.2494 11.0819V17H15.6262V11.8125C15.6262 11.1565 15.6258 10.282 15.345 9.57315C15.1989 9.2043 14.9685 8.85503 14.6049 8.60143C14.2403 8.34708 13.7845 8.21875 13.24 8.21875C12.7035 8.21875 12.2442 8.32371 11.8621 8.53519C11.4772 8.74827 11.2006 9.05305 11.007 9.40397C10.6329 10.0823 10.5644 10.9439 10.5644 11.715V17H7.94V6.31625H10.4194V7.41V7.91H10.9194H10.97H11.2715L11.4122 7.64331C11.8142 6.88131 12.8317 6.02312 14.4025 6.02312C16.1151 6.02312 17.0167 6.57621 17.5298 7.39115C18.0762 8.25915 18.2494 9.52237 18.2494 11.0819ZM4.6675 17H2.03938V6.31625H4.6675V17ZM3.35125 3.7225C2.47353 3.7225 1.75 2.99128 1.75 2.10125C1.75 1.67657 1.9187 1.26929 2.219 0.968995C2.51929 0.668703 2.92657 0.5 3.35125 0.5C3.77593 0.5 4.18321 0.668703 4.4835 0.968995C4.7838 1.26929 4.9525 1.67657 4.9525 2.10125C4.9525 2.99128 4.22897 3.7225 3.35125 3.7225Z" stroke="url(#paint0_linear_1282_54)"/>
</g>
<defs>
<linearGradient id="paint0_linear_1282_54" x1="0.90138" y1="6.3194" x2="16.9049" y2="6.32709" gradientUnits="userSpaceOnUse">
<stop stop-color="#00C5EB"/>
<stop offset="1" stop-color="#B544FE"/>
</linearGradient>
<clipPath id="clip0_1282_54">
<rect width="20" height="20" fill="white"/>
</clipPath>
</defs>
</svg>
