<svg width="18" height="18" viewBox="0 0 18 18" fill="none" xmlns="http://www.w3.org/2000/svg">
<path d="M17.2494 11.0819V17H14.6262V11.8125C14.6262 11.1565 14.6258 10.282 14.345 9.57315C14.1989 9.2043 13.9685 8.85503 13.6049 8.60143C13.2403 8.34708 12.7845 8.21875 12.24 8.21875C11.7035 8.21875 11.2442 8.32371 10.8621 8.53519C10.4772 8.74827 10.2006 9.05305 10.007 9.40397C9.63287 10.0823 9.56437 10.9439 9.56437 11.715V17H6.94V6.31625H9.41937V7.41V7.91H9.91937H9.97H10.2715L10.4122 7.64331C10.8142 6.88131 11.8317 6.02312 13.4025 6.02312C15.1151 6.02312 16.0167 6.57621 16.5298 7.39115C17.0762 8.25915 17.2494 9.52237 17.2494 11.0819ZM3.6675 17H1.03938V6.31625H3.6675V17ZM2.35125 3.7225C1.47353 3.7225 0.75 2.99128 0.75 2.10125C0.75 1.67657 0.918703 1.26929 1.219 0.968995C1.51929 0.668703 1.92657 0.5 2.35125 0.5C2.77593 0.5 3.18321 0.668703 3.4835 0.968995C3.7838 1.26929 3.9525 1.67657 3.9525 2.10125C3.9525 2.99128 3.22897 3.7225 2.35125 3.7225Z" stroke="url(#paint0_linear_1282_55)"/>
<defs>
<linearGradient id="paint0_linear_1282_55" x1="-0.0986203" y1="6.3194" x2="15.9049" y2="6.32709" gradientUnits="userSpaceOnUse">
<stop stop-color="#00C5EB"/>
<stop offset="1" stop-color="#B544FE"/>
</linearGradient>
</defs>
</svg>
