<svg width="18" height="15" viewBox="0 0 18 15" fill="none" xmlns="http://www.w3.org/2000/svg">
<path d="M17.75 1.72997C17.5105 2.08875 17.2385 2.42475 16.9375 2.73372C16.635 3.04468 16.3062 3.32906 15.955 3.58372C15.9663 3.74056 15.9721 3.89774 15.9725 4.05498C15.9725 4.77247 15.8962 5.48123 15.7425 6.18248C15.5893 6.88121 15.3657 7.56261 15.075 8.21622C14.6724 9.13711 14.1404 9.99578 13.495 10.7662C12.8765 11.503 12.1519 12.1437 11.345 12.6675C10.5353 13.19 9.65284 13.5901 8.72625 13.855C7.75938 14.1317 6.75819 14.2702 5.7525 14.2662C4.78265 14.2675 3.81756 14.1307 2.88625 13.86C1.95286 13.5882 1.06458 13.1805 0.25 12.65C1.19022 12.7636 2.14362 12.6908 3.05563 12.4355C3.96765 12.1803 4.82038 11.7477 5.565 11.1625C5.00794 11.1547 4.46053 11.016 3.96697 10.7576C3.4734 10.4992 3.04753 10.1283 2.72375 9.67498C2.50291 9.3703 2.33124 9.03286 2.215 8.67498C2.32875 8.69248 2.44125 8.70747 2.5525 8.71873C2.98155 8.76072 3.41467 8.723 3.83 8.60748C3.42032 8.52669 3.02835 8.37346 2.6725 8.15497C2.3277 7.94309 2.02023 7.67575 1.7625 7.36373C1.2334 6.72309 0.945861 5.9171 0.95 5.08623V5.04497C1.4525 5.32872 1.99625 5.47997 2.5825 5.49747C2.09366 5.1645 1.69232 4.71856 1.4125 4.19747C1.27547 3.94047 1.16931 3.66816 1.09625 3.38622C0.947425 2.78958 0.950433 2.16516 1.105 1.56997C1.18375 1.26622 1.30625 0.977475 1.4725 0.703725C1.9275 1.26748 2.435 1.77373 2.9925 2.21997C4.10051 3.10859 5.38082 3.75768 6.7525 4.12622C7.44486 4.31176 8.15522 4.42198 8.87125 4.45498C8.83671 4.32162 8.81247 4.1858 8.79875 4.04872C8.78467 3.91126 8.77757 3.77316 8.7775 3.63497C8.7775 3.13872 8.87125 2.67248 9.06 2.23747C9.42595 1.37793 10.1105 0.693429 10.97 0.327475C11.4111 0.138673 11.8864 0.0429268 12.3663 0.046225C12.8584 0.0438311 13.3457 0.143578 13.7973 0.339157C14.2489 0.534737 14.655 0.821895 14.99 1.18247C15.7919 1.02415 16.5607 0.729012 17.2625 0.309975C17.0023 1.14294 16.4419 1.8495 15.69 2.29248C16.4009 2.20985 17.0954 2.02064 17.75 1.73123V1.72997Z" fill="white"/>
</svg>
