<svg aria-hidden="true" style="position: absolute; width: 0; height: 0; overflow: hidden;" version="1.1" xmlns="http://www.w3.org/2000/svg" xmlns:xlink="http://www.w3.org/1999/xlink">
<defs>
<symbol id="icon-gradient" viewBox="0 0 24 32">
<path fill="#7d55ff" style="fill: var(--color1, #7d55ff)" opacity="0.5" d="M18.251 20.948c-1.586 4.474-5.722 7.090-9.239 5.843s-5.083-5.884-3.497-10.357c1.586-4.474 5.722-7.090 9.239-5.843s5.083 5.884 3.497 10.357z"></path>
<path fill="#00c5eb" style="fill: var(--color2, #00c5eb)" opacity="0.5" d="M21.126 15.091c2.099-4.184 1.753-8.603-0.773-9.87s-6.275 1.097-8.374 5.281c-2.099 4.184-1.753 8.603 0.773 9.87s6.275-1.097 8.374-5.281z"></path>
</symbol>
<symbol id="icon-iphone" viewBox="0 0 28 32">
<path fill="#000" style="fill: var(--color1, #000)" opacity="0.7" d="M1.101 8.050h24.107v23.924h-24.107v-23.924z"></path>
<path fill="#000" style="fill: var(--color1, #000)" d="M0.489 0.035h28.084v29.92h-28.084v-29.92z"></path>
<path fill="#000" style="fill: var(--color1, #000)" d="M0 0.035h26.31v28.145h-26.31v-28.145z"></path>
</symbol>
<symbol id="icon-elipse23" viewBox="0 0 20 32">
<path fill="#d9d9d9" style="fill: var(--color1, #d9d9d9)" d="M16.569 6.361c0.379 0.227-1.903 4.728-5.098 10.052s-6.091 9.455-6.47 9.228c-0.379-0.227 1.903-4.728 5.098-10.052s6.091-9.455 6.47-9.228z"></path>
<path fill="#00c5eb" style="fill: var(--color2, #00c5eb)" opacity="0.5" d="M16.569 6.361c0.379 0.227-1.903 4.728-5.098 10.052s-6.091 9.455-6.47 9.228c-0.379-0.227 1.903-4.728 5.098-10.052s6.091-9.455 6.47-9.228z"></path>
</symbol>
<symbol id="icon-elipse24" viewBox="0 0 17 32">
<path fill="#7d55ff" style="fill: var(--color3, #7d55ff)" opacity="0.5" d="M8.392 8.353c0.493 0.296-1.163 3.962-3.699 8.188s-4.992 7.413-5.485 7.117c-0.493-0.296 1.163-3.962 3.699-8.188s4.992-7.413 5.485-7.117z"></path>
</symbol>
<symbol id="icon-linkedin" viewBox="0 0 38 32">
<path  d="M37.867 3.691c-0.511 0.765-1.091 1.482-1.733 2.141-0.645 0.663-1.347 1.27-2.096 1.813 0.024 0.335 0.036 0.67 0.037 1.005 0 1.531-0.163 3.043-0.491 4.539-0.327 1.491-0.804 2.944-1.424 4.339-0.859 1.965-1.994 3.796-3.371 5.44-1.319 1.572-2.865 2.939-4.587 4.056-1.727 1.115-3.61 1.968-5.587 2.533-2.063 0.59-4.199 0.886-6.344 0.877-2.069 0.003-4.128-0.289-6.115-0.867-1.991-0.58-3.886-1.45-5.624-2.581 2.006 0.242 4.040 0.087 5.985-0.458s3.765-1.467 5.353-2.716c-1.188-0.017-2.356-0.313-3.409-0.864s-1.961-1.343-2.652-2.31c-0.471-0.65-0.837-1.37-1.085-2.133 0.243 0.037 0.483 0.069 0.72 0.093 0.915 0.090 1.839 0.009 2.725-0.237-0.874-0.172-1.71-0.499-2.469-0.965-0.736-0.452-1.391-1.022-1.941-1.688-1.129-1.367-1.742-3.086-1.733-4.859v-0.088c1.072 0.605 2.232 0.928 3.483 0.965-1.043-0.71-1.899-1.662-2.496-2.773-0.292-0.548-0.519-1.129-0.675-1.731-0.317-1.273-0.311-2.605 0.019-3.875 0.168-0.648 0.429-1.264 0.784-1.848 0.971 1.203 2.053 2.283 3.243 3.235 2.364 1.896 5.095 3.28 8.021 4.067 1.477 0.396 2.992 0.631 4.52 0.701-0.074-0.284-0.125-0.574-0.155-0.867s-0.045-0.588-0.045-0.883c0-1.059 0.2-2.053 0.603-2.981 0.781-1.834 2.241-3.294 4.075-4.075 0.941-0.403 1.955-0.607 2.979-0.6 1.050-0.005 2.089 0.208 3.053 0.625s1.83 1.030 2.544 1.799c1.711-0.338 3.351-0.967 4.848-1.861-0.555 1.777-1.751 3.284-3.355 4.229 1.517-0.176 2.998-0.58 4.395-1.197v-0.003z"></path>
</symbol>
<symbol id="icon-instagram" viewBox="0 0 32 32">
<path d="M7.409 31.111h-6.45v-20.771h6.45v20.771zM4.18 7.507c-2.062 0-3.736-1.709-3.736-3.771 0-0.991 0.394-1.941 1.094-2.641s1.651-1.094 2.641-1.094c0.991 0 1.941 0.394 2.641 1.094s1.094 1.651 1.094 2.641c0 2.062-1.673 3.771-3.736 3.771zM31.549 31.111h-6.436v-10.111c0-2.41-0.049-5.5-3.353-5.5-3.353 0-3.868 2.618-3.868 5.327v10.284h-6.443v-20.771h6.186v2.833h0.090c0.861-1.632 2.964-3.354 6.102-3.354 6.528 0 7.728 4.299 7.728 9.882v11.41h-0.006z"></path>
</symbol>
<symbol id="icon-facebook" viewBox="0 0 18 32">
<path  d="M17.778 2.018c0-0.218-0.085-0.427-0.237-0.582s-0.357-0.241-0.571-0.241h-4.040c-2.035-0.103-4.027 0.618-5.541 2.005s-2.427 3.329-2.54 5.4v4.443h-4.040c-0.214 0-0.42 0.087-0.571 0.241s-0.237 0.364-0.237 0.582v4.278c0 0.218 0.085 0.428 0.237 0.582s0.357 0.241 0.571 0.241h4.040v11.025c0 0.218 0.085 0.427 0.237 0.582s0.357 0.241 0.571 0.241h4.848c0.214 0 0.42-0.087 0.571-0.241s0.237-0.364 0.237-0.582v-11.025h4.234c0.18 0.003 0.355-0.056 0.499-0.166s0.247-0.266 0.293-0.443l1.164-4.278c0.032-0.122 0.036-0.249 0.013-0.373s-0.075-0.24-0.15-0.34c-0.075-0.1-0.171-0.181-0.282-0.238s-0.233-0.086-0.356-0.086h-5.414v-4.443c0.040-0.407 0.228-0.785 0.527-1.059s0.687-0.424 1.089-0.422h4.040c0.214 0 0.42-0.087 0.571-0.241s0.237-0.364 0.237-0.582v-4.278z"></path>
</symbol>
<symbol id="icon-ellipsefot1" viewBox="0 0 18 32">
<path fill="#7d55ff" style="fill: var(--color1, #7d55ff)" opacity="0.3" d="M9.581 18.946c-2.253 4.918-6.581 7.584-9.667 5.955s-3.761-6.936-1.508-11.854c2.253-4.918 6.581-7.584 9.667-5.955s3.761 6.936 1.508 11.854z"></path>
</symbol>
<symbol id="icon-ellipsefot2" viewBox="0 0 21 32">
<path fill="#00c5eb" style="fill: var(--color2, #00c5eb)" opacity="0.3" d="M20.89 12.002c-4.145-4.227-9.598-5.875-12.181-3.681s-1.317 7.399 2.828 11.627c4.145 4.227 9.598 5.875 12.181 3.681s1.317-7.399-2.828-11.627z"></path>
</symbol>
<symbol id="icon-rozpilenia" viewBox="0 0 34 32">
<path fill="#00c5eb" style="fill: var(--color1, #00c5eb)" opacity="0.4" d="M8.054 11.264c0.527-0.895 4.635 0.545 9.176 3.218s7.794 5.565 7.267 6.46c-0.527 0.895-4.635-0.545-9.176-3.218s-7.794-5.565-7.267-6.46z"></path>
<path fill="#7d55ff" style="fill: var(--color2, #7d55ff)" opacity="0.4" d="M18.575 21.821c0.527-0.895 3.201-0.299 5.972 1.332s4.591 3.679 4.064 4.574c-0.527 0.895-3.201 0.299-5.972-1.332s-4.591-3.679-4.064-4.574z"></path>
</symbol>
<symbol id="icon-facebook-hover" viewBox="0 0 20 20">
<path d="M14.0002 1.66663H11.5002C10.3951 1.66663 9.33529 2.10561 8.55388 2.88701C7.77248 3.66842 7.3335 4.72822 7.3335 5.83329V8.33329H4.8335V11.6666H7.3335V18.3333H10.6668V11.6666H13.1668L14.0002 8.33329H10.6668V5.83329C10.6668 5.61228 10.7546 5.40032 10.9109 5.24404C11.0672 5.08776 11.2791 4.99996 11.5002 4.99996H14.0002V1.66663Z" stroke="url(#paint0_linear_2680_41)" stroke-linecap="round" stroke-linejoin="round"/>
</symbol>
<symbol id="icon-twitter-hover" viewBox="0 0 20 20">
<path d="M18.8335 3.49935C18.0935 4.02131 17.2742 4.42052 16.4071 4.68162C15.9418 4.14651 15.3233 3.76725 14.6353 3.59511C13.9473 3.42297 13.2231 3.46627 12.5606 3.71915C11.898 3.97203 11.3291 4.42229 10.9308 5.00904C10.5325 5.59578 10.324 6.2907 10.3335 6.9998V7.77253C8.97553 7.80774 7.62994 7.50657 6.41655 6.89583C5.20316 6.28509 4.15965 5.38375 3.37895 4.27207C3.37895 4.27207 0.288042 11.2266 7.24259 14.3175C5.65118 15.3978 3.75539 15.9394 1.8335 15.863C8.78804 19.7266 17.288 15.863 17.288 6.97662C17.2873 6.76138 17.2666 6.54667 17.2262 6.33526C18.0149 5.5575 18.5714 4.57553 18.8335 3.49935Z" stroke="url(#paint0_linear_2675_2)" stroke-linecap="round" stroke-linejoin="round"/>
</symbol>

<symbol id="icon-linkedin-hover" viewBox="0 0 20 20">
<path d="M18.2494 11.0819V17H15.6262V11.8125C15.6262 11.1565 15.6258 10.282 15.345 9.57315C15.1989 9.2043 14.9685 8.85503 14.6049 8.60143C14.2403 8.34708 13.7845 8.21875 13.24 8.21875C12.7035 8.21875 12.2442 8.32371 11.8621 8.53519C11.4772 8.74827 11.2006 9.05305 11.007 9.40397C10.6329 10.0823 10.5644 10.9439 10.5644 11.715V17H7.94V6.31625H10.4194V7.41V7.91H10.9194H10.97H11.2715L11.4122 7.64331C11.8142 6.88131 12.8317 6.02312 14.4025 6.02312C16.1151 6.02312 17.0167 6.57621 17.5298 7.39115C18.0762 8.25915 18.2494 9.52237 18.2494 11.0819ZM4.6675 17H2.03938V6.31625H4.6675V17ZM3.35125 3.7225C2.47353 3.7225 1.75 2.99128 1.75 2.10125C1.75 1.67657 1.9187 1.26929 2.219 0.968995C2.51929 0.668703 2.92657 0.5 3.35125 0.5C3.77593 0.5 4.18321 0.668703 4.4835 0.968995C4.7838 1.26929 4.9525 1.67657 4.9525 2.10125C4.9525 2.99128 4.22897 3.7225 3.35125 3.7225Z" stroke="url(#paint0_linear_1282_54)"/>
</symbol>

</defs>
</svg>
