<svg width="18" height="15" viewBox="0 0 18 15" fill="none" xmlns="http://www.w3.org/2000/svg">
<path d="M9.2775 3.63471C9.27753 3.20324 9.35869 2.80523 9.51869 2.43651L9.52004 2.43334C9.83538 1.69268 10.4252 1.10285 11.1659 0.787516L11.1667 0.78714C11.5446 0.625407 11.9518 0.543388 12.3628 0.546213V0.546248L12.3687 0.546219C12.7917 0.544162 13.2105 0.629889 13.5986 0.79798C13.9867 0.966072 14.3358 1.21287 14.6237 1.52277L14.8134 1.727L15.0868 1.67301C15.3964 1.6119 15.7013 1.53174 15.9999 1.43318C15.8307 1.59645 15.6418 1.74055 15.4362 1.86169L15.7477 2.78913C15.9107 2.7702 16.0728 2.74603 16.2338 2.7167C16.0513 2.88053 15.8603 3.03482 15.6615 3.17893L15.4363 3.34218L15.4563 3.61959C15.4667 3.76464 15.4721 3.91001 15.4725 4.05544C15.4725 4.73701 15.4001 5.4097 15.2541 6.07539C15.1081 6.74111 14.8951 7.39032 14.6181 8.01306L14.6169 8.01595C14.2334 8.89304 13.7267 9.71089 13.1121 10.4447C12.5255 11.1434 11.8385 11.751 11.0734 12.2477C10.3051 12.7434 9.46794 13.123 8.58884 13.3742L8.58866 13.3743C7.66716 13.638 6.71296 13.77 5.75446 13.7662L5.75186 13.7662C4.82945 13.7674 3.91156 13.6373 3.02581 13.3798C2.7639 13.3036 2.50573 13.2161 2.25201 13.1176C2.56801 13.0704 2.88142 13.0035 3.19039 12.917C4.16572 12.6441 5.07764 12.1814 5.87396 11.5556L6.98517 10.6823L5.57199 10.6625C5.09334 10.6558 4.62297 10.5367 4.19887 10.3146C3.77478 10.0926 3.40885 9.77394 3.13064 9.38438L3.13065 9.38438L3.12859 9.38153C3.0934 9.333 3.05967 9.28349 3.02742 9.23309C3.3436 9.22245 3.65802 9.17429 3.96399 9.08919L3.92673 8.11692C3.57541 8.04765 3.23927 7.91624 2.93411 7.72888C2.63626 7.54583 2.37066 7.31487 2.14802 7.04533L9.2775 3.63471ZM9.2775 3.63471C9.27757 3.75596 9.28379 3.87714 9.29615 3.99777L9.29627 3.99893C9.30743 4.1105 9.32716 4.22105 9.35528 4.3296L9.52521 4.98564L8.84823 4.95444C8.09625 4.91979 7.35021 4.80403 6.62308 4.60919L6.62276 4.6091C5.18444 4.22265 3.84193 3.54205 2.68005 2.61032L9.2775 3.63471ZM1.53892 5.83504C1.86889 5.93247 2.21208 5.98664 2.56758 5.99725L4.27938 6.04835L2.86398 5.08423C2.44179 4.79665 2.09513 4.41156 1.85336 3.96158C1.7354 3.74023 1.64393 3.50576 1.58084 3.26301C1.45278 2.74807 1.45556 2.20926 1.58895 1.69565L1.589 1.69546C1.59543 1.67065 1.60221 1.64595 1.60934 1.62136C1.94352 1.97671 2.30065 2.30663 2.67998 2.61027L1.53892 5.83504ZM1.53892 5.83504C1.64785 6.27599 1.85473 6.69021 2.148 7.04531L1.53892 5.83504Z" stroke="url(#paint0_linear_1282_51)"/>
<defs>
<linearGradient id="paint0_linear_1282_51" x1="-0.0986328" y1="5.18116" x2="15.9055" y2="5.19063" gradientUnits="userSpaceOnUse">
<stop stop-color="#00C5EB"/>
<stop offset="1" stop-color="#B544FE"/>
</linearGradient>
</defs>
</svg>
