<svg width="19" height="16" viewBox="0 0 19 16" fill="none" xmlns="http://www.w3.org/2000/svg">
<path d="M17.8335 1.49935C17.0935 2.02131 16.2742 2.42052 15.4071 2.68162C14.9418 2.14651 14.3233 1.76725 13.6353 1.59511C12.9473 1.42297 12.2231 1.46627 11.5606 1.71915C10.898 1.97203 10.3291 2.42229 9.9308 3.00904C9.53249 3.59578 9.32399 4.2907 9.3335 4.9998V5.77253C7.97553 5.80774 6.62994 5.50657 5.41655 4.89583C4.20316 4.28509 3.15965 3.38375 2.37895 2.27207C2.37895 2.27207 -0.711958 9.22662 6.24259 12.3175C4.65118 13.3978 2.75539 13.9394 0.833496 13.863C7.78804 17.7266 16.288 13.863 16.288 4.97662C16.2873 4.76138 16.2666 4.54667 16.2262 4.33526C17.0149 3.5575 17.5714 2.57553 17.8335 1.49935Z" stroke="url(#paint0_linear_2675_3)" stroke-linecap="round" stroke-linejoin="round"/>
<defs>
<linearGradient id="paint0_linear_2675_3" x1="0.494824" y1="6.49855" x2="16.0417" y2="6.50771" gradientUnits="userSpaceOnUse">
<stop stop-color="#00C5EB"/>
<stop offset="1" stop-color="#B544FE"/>
</linearGradient>
</defs>
</svg>
